<svg width="204" height="31" viewBox="0 0 204 31" fill="none" xmlns="http://www.w3.org/2000/svg">
<path d="M52 28.3217C52 28.8911 51.7809 29.3856 51.3429 29.8052C50.936 30.1948 50.451 30.3896 49.8878 30.3896H33.7408C33.1776 30.3896 32.6769 30.1948 32.2388 29.8052C31.832 29.3856 31.6286 28.8911 31.6286 28.3217V2.06793C31.6286 1.46853 31.832 0.974027 32.2388 0.584416C32.6769 0.194805 33.1776 0 33.7408 0H35.0551C35.6497 0 36.1504 0.194805 36.5572 0.584416C36.9953 0.974027 37.2143 1.46853 37.2143 2.06793V24.5005C37.2143 24.8901 37.4021 25.0849 37.7776 25.0849H49.8878C50.451 25.0849 50.936 25.2797 51.3429 25.6693C51.7809 26.0589 52 26.5534 52 27.1528V28.3217Z" fill="#00B0C7"/>
<path d="M16.9918 28.3217C16.9918 28.8911 16.7884 29.3856 16.3816 29.8052C15.9748 30.1948 15.4741 30.3896 14.8796 30.3896H13.5653C12.9707 30.3896 12.47 30.1948 12.0632 29.8052C11.6564 29.3856 11.453 28.8911 11.453 28.3217V13.0819C11.453 12.9021 11.3748 12.7522 11.2183 12.6324C11.0932 12.5125 10.9524 12.4525 10.7959 12.4525H6.24285C6.08638 12.4525 5.92992 12.5125 5.77346 12.6324C5.64829 12.7522 5.5857 12.9021 5.5857 13.0819V28.3217C5.5857 28.8911 5.3823 29.3856 4.9755 29.8052C4.5687 30.1948 4.06802 30.3896 3.47346 30.3896H2.15918C1.56462 30.3896 1.0483 30.1948 0.610203 29.8052C0.203401 29.3856 0 28.8911 0 28.3217V2.06793C0 1.46853 0.203401 0.974027 0.610203 0.584416C1.0483 0.194805 1.56462 0 2.15918 0H3.47346C4.06802 0 4.5687 0.194805 4.9755 0.584416C5.3823 0.974027 5.5857 1.46853 5.5857 2.06793V6.56344C5.5857 6.71329 5.64829 6.84815 5.77346 6.96803C5.92992 7.05794 6.08638 7.1029 6.24285 7.1029H11.7816C12.7517 7.1029 13.6279 7.32767 14.4102 7.77722C15.1925 8.22677 15.8183 8.84116 16.2877 9.62038C16.7571 10.3696 16.9918 11.2088 16.9918 12.1379V28.3217Z" fill="#FF8A6C"/>
<path d="M28.2659 14.4446C28.2659 15.3737 27.9217 16.1679 27.2332 16.8272C26.5448 17.4866 25.7156 17.8163 24.7455 17.8163C23.7754 17.8163 22.9462 17.4866 22.2577 16.8272C21.5693 16.1679 21.2251 15.3737 21.2251 14.4446C21.2251 13.5156 21.5693 12.7213 22.2577 12.062C22.9462 11.4027 23.7754 11.073 24.7455 11.073C25.7156 11.073 26.5448 11.4027 27.2332 12.062C27.9217 12.7213 28.2659 13.5156 28.2659 14.4446ZM28.2659 23.7054C28.2659 24.2748 28.1407 24.9192 27.8904 25.6384C27.6713 26.3577 27.421 27.0171 27.1394 27.6165C26.889 28.2159 26.7013 28.6504 26.5761 28.9201C26.1693 29.7293 25.5278 30.1339 24.6516 30.1339H23.619C22.8679 30.1339 22.2734 29.8193 21.8353 29.1899C21.3972 28.5605 21.3346 27.9012 21.6475 27.2119C21.7101 27.1219 21.7571 27.032 21.7883 26.9421C21.8509 26.8222 21.8979 26.7024 21.9292 26.5825C22.0856 26.2828 22.0543 25.9381 21.8353 25.5485C21.4285 25.0091 21.2251 24.3947 21.2251 23.7054C21.2251 22.7763 21.5693 21.9821 22.2577 21.3227C22.9462 20.6634 23.7754 20.3337 24.7455 20.3337C25.7156 20.3337 26.5448 20.6634 27.2332 21.3227C27.9217 21.9821 28.2659 22.7763 28.2659 23.7054Z" fill="#5A5A5A"/>
<path d="M196.333 25.396C195.137 25.396 194.054 25.1187 193.083 24.564C192.13 24.0093 191.367 23.212 190.795 22.172C190.241 21.132 189.963 19.91 189.963 18.506C189.963 17.0673 190.241 15.8367 190.795 14.814C191.367 13.7913 192.13 13.0027 193.083 12.448C194.054 11.8933 195.137 11.616 196.333 11.616C197.616 11.616 198.76 11.9107 199.765 12.5C200.788 13.072 201.585 13.878 202.157 14.918C202.747 15.9407 203.041 17.1367 203.041 18.506C203.041 19.858 202.747 21.054 202.157 22.094C201.585 23.134 200.788 23.9487 199.765 24.538C198.76 25.11 197.616 25.396 196.333 25.396ZM189.521 25.292V6H190.821V16.114L190.561 18.48L190.769 20.846V25.292H189.521ZM196.255 24.226C197.295 24.226 198.231 23.992 199.063 23.524C199.895 23.0387 200.545 22.3627 201.013 21.496C201.499 20.6293 201.741 19.6327 201.741 18.506C201.741 17.362 201.499 16.3653 201.013 15.516C200.545 14.6493 199.895 13.982 199.063 13.514C198.231 13.0287 197.295 12.786 196.255 12.786C195.215 12.786 194.279 13.0287 193.447 13.514C192.633 13.982 191.983 14.6493 191.497 15.516C191.029 16.3653 190.795 17.362 190.795 18.506C190.795 19.6327 191.029 20.6293 191.497 21.496C191.983 22.3627 192.633 23.0387 193.447 23.524C194.279 23.992 195.215 24.226 196.255 24.226Z" fill="#00B0C7"/>
<path d="M182.917 25.292V22.198L182.865 21.73V16.634C182.865 15.3687 182.519 14.4067 181.825 13.748C181.149 13.0894 180.153 12.76 178.835 12.76C177.899 12.76 177.024 12.9247 176.209 13.254C175.412 13.566 174.727 13.9734 174.155 14.476L173.505 13.54C174.181 12.9334 174.996 12.4654 175.949 12.136C176.903 11.7894 177.899 11.616 178.939 11.616C180.621 11.616 181.912 12.0407 182.813 12.89C183.715 13.7394 184.165 15.0047 184.165 16.686V25.292H182.917ZM178.029 25.396C177.024 25.396 176.149 25.24 175.403 24.928C174.675 24.5987 174.112 24.1394 173.713 23.55C173.332 22.9607 173.141 22.2847 173.141 21.522C173.141 20.8287 173.297 20.2047 173.609 19.65C173.939 19.078 174.476 18.6187 175.221 18.272C175.967 17.908 176.963 17.726 178.211 17.726H183.203V18.74H178.237C176.833 18.74 175.845 19 175.273 19.52C174.719 20.04 174.441 20.69 174.441 21.47C174.441 22.3367 174.771 23.03 175.429 23.55C176.088 24.07 177.015 24.33 178.211 24.33C179.355 24.33 180.317 24.07 181.097 23.55C181.895 23.03 182.484 22.276 182.865 21.288L183.229 22.172C182.865 23.16 182.241 23.9487 181.357 24.538C180.491 25.11 179.381 25.396 178.029 25.396Z" fill="#00B0C7"/>
<path d="M167.584 25.292V6H168.884V25.292H167.584Z" fill="#00B0C7"/>
<path d="M158.6 25.396C157.473 25.396 156.416 25.2314 155.428 24.902C154.457 24.5727 153.703 24.1567 153.166 23.654L153.764 22.614C154.284 23.0647 154.977 23.4547 155.844 23.784C156.711 24.096 157.647 24.252 158.652 24.252C160.073 24.252 161.096 24.018 161.72 23.55C162.344 23.082 162.656 22.4667 162.656 21.704C162.656 21.1494 162.491 20.716 162.162 20.404C161.85 20.0747 161.425 19.8234 160.888 19.65C160.351 19.4767 159.761 19.338 159.12 19.234C158.479 19.1127 157.837 18.9827 157.196 18.844C156.555 18.7054 155.965 18.506 155.428 18.246C154.891 17.986 154.457 17.6307 154.128 17.18C153.816 16.712 153.66 16.0967 153.66 15.334C153.66 14.6407 153.851 14.0167 154.232 13.462C154.613 12.9074 155.185 12.4654 155.948 12.136C156.711 11.7894 157.664 11.616 158.808 11.616C159.657 11.616 160.507 11.7374 161.356 11.98C162.223 12.2227 162.925 12.5434 163.462 12.942L162.864 13.982C162.292 13.5487 161.651 13.2367 160.94 13.046C160.229 12.8554 159.51 12.76 158.782 12.76C157.465 12.76 156.494 13.0027 155.87 13.488C155.263 13.9734 154.96 14.58 154.96 15.308C154.96 15.88 155.116 16.3394 155.428 16.686C155.757 17.0154 156.191 17.2754 156.728 17.466C157.265 17.6394 157.855 17.7867 158.496 17.908C159.137 18.012 159.779 18.1334 160.42 18.272C161.061 18.4107 161.651 18.61 162.188 18.87C162.725 19.1127 163.15 19.4594 163.462 19.91C163.791 20.3434 163.956 20.9327 163.956 21.678C163.956 22.4234 163.748 23.0734 163.332 23.628C162.933 24.1827 162.335 24.616 161.538 24.928C160.741 25.24 159.761 25.396 158.6 25.396Z" fill="#FF8A6C"/>
<path d="M145.012 25.292V11.72H146.26V15.438L146.13 15.022C146.511 13.93 147.152 13.0894 148.054 12.5C148.955 11.9107 150.082 11.616 151.434 11.616V12.89C151.382 12.89 151.33 12.89 151.278 12.89C151.226 12.8727 151.174 12.864 151.122 12.864C149.614 12.864 148.435 13.3407 147.586 14.294C146.736 15.23 146.312 16.5387 146.312 18.22V25.292H145.012Z" fill="#FF8A6C"/>
<path d="M135.01 25.396C133.641 25.396 132.427 25.1014 131.37 24.512C130.33 23.9227 129.507 23.108 128.9 22.068C128.311 21.028 128.016 19.8407 128.016 18.506C128.016 17.154 128.293 15.9667 128.848 14.944C129.42 13.904 130.2 13.0894 131.188 12.5C132.176 11.9107 133.285 11.616 134.516 11.616C135.747 11.616 136.847 11.902 137.818 12.474C138.806 13.046 139.577 13.852 140.132 14.892C140.704 15.9147 140.99 17.102 140.99 18.454C140.99 18.506 140.981 18.5667 140.964 18.636C140.964 18.688 140.964 18.7487 140.964 18.818H128.978V17.804H140.262L139.742 18.298C139.759 17.2407 139.534 16.296 139.066 15.464C138.615 14.6147 138 13.956 137.22 13.488C136.44 13.0027 135.539 12.76 134.516 12.76C133.511 12.76 132.609 13.0027 131.812 13.488C131.032 13.956 130.417 14.6147 129.966 15.464C129.515 16.296 129.29 17.2494 129.29 18.324V18.558C129.29 19.6674 129.533 20.6554 130.018 21.522C130.521 22.3714 131.205 23.0387 132.072 23.524C132.939 23.992 133.927 24.226 135.036 24.226C135.903 24.226 136.709 24.07 137.454 23.758C138.217 23.446 138.858 22.9694 139.378 22.328L140.132 23.186C139.543 23.914 138.797 24.4687 137.896 24.85C137.012 25.214 136.05 25.396 135.01 25.396Z" fill="#FF8A6C"/>
<path d="M122.719 25.292V6H124.019V25.292H122.719Z" fill="#FF8A6C"/>
<path d="M110.638 30.44C109.407 30.44 108.237 30.2494 107.128 29.868C106.019 29.4867 105.117 28.958 104.424 28.282L105.126 27.294C105.802 27.918 106.608 28.4034 107.544 28.75C108.497 29.0967 109.52 29.27 110.612 29.27C112.432 29.27 113.767 28.8454 114.616 27.996C115.483 27.1467 115.916 25.812 115.916 23.992V20.222L116.176 18.194L115.968 16.166V11.72H117.216V23.836C117.216 26.1067 116.661 27.7707 115.552 28.828C114.46 29.9027 112.822 30.44 110.638 30.44ZM110.274 24.798C108.991 24.798 107.839 24.5207 106.816 23.966C105.811 23.394 105.005 22.614 104.398 21.626C103.809 20.6207 103.514 19.4767 103.514 18.194C103.514 16.894 103.809 15.75 104.398 14.762C105.005 13.774 105.811 13.0027 106.816 12.448C107.839 11.8934 108.991 11.616 110.274 11.616C111.505 11.616 112.605 11.8847 113.576 12.422C114.564 12.942 115.344 13.696 115.916 14.684C116.488 15.6547 116.774 16.8247 116.774 18.194C116.774 19.546 116.488 20.716 115.916 21.704C115.344 22.692 114.564 23.4547 113.576 23.992C112.605 24.5294 111.505 24.798 110.274 24.798ZM110.378 23.628C111.47 23.628 112.432 23.4027 113.264 22.952C114.096 22.484 114.746 21.8427 115.214 21.028C115.699 20.196 115.942 19.2514 115.942 18.194C115.942 17.1194 115.699 16.1747 115.214 15.36C114.746 14.5454 114.096 13.9127 113.264 13.462C112.432 13.0114 111.47 12.786 110.378 12.786C109.321 12.786 108.367 13.0114 107.518 13.462C106.686 13.9127 106.027 14.5454 105.542 15.36C105.074 16.1747 104.84 17.1194 104.84 18.194C104.84 19.2514 105.074 20.196 105.542 21.028C106.027 21.8427 106.686 22.484 107.518 22.952C108.367 23.4027 109.321 23.628 110.378 23.628Z" fill="#FF8A6C"/>
<path d="M92.9154 30.44C91.6848 30.44 90.5148 30.2494 89.4054 29.868C88.2961 29.4867 87.3948 28.958 86.7014 28.282L87.4034 27.294C88.0794 27.918 88.8854 28.4034 89.8214 28.75C90.7748 29.0967 91.7974 29.27 92.8894 29.27C94.7094 29.27 96.0441 28.8454 96.8934 27.996C97.7601 27.1467 98.1934 25.812 98.1934 23.992V20.222L98.4534 18.194L98.2454 16.166V11.72H99.4934V23.836C99.4934 26.1067 98.9388 27.7707 97.8294 28.828C96.7374 29.9027 95.0994 30.44 92.9154 30.44ZM92.5514 24.798C91.2688 24.798 90.1161 24.5207 89.0934 23.966C88.0881 23.394 87.2821 22.614 86.6754 21.626C86.0861 20.6207 85.7914 19.4767 85.7914 18.194C85.7914 16.894 86.0861 15.75 86.6754 14.762C87.2821 13.774 88.0881 13.0027 89.0934 12.448C90.1161 11.8934 91.2688 11.616 92.5514 11.616C93.7821 11.616 94.8828 11.8847 95.8534 12.422C96.8414 12.942 97.6214 13.696 98.1934 14.684C98.7654 15.6547 99.0514 16.8247 99.0514 18.194C99.0514 19.546 98.7654 20.716 98.1934 21.704C97.6214 22.692 96.8414 23.4547 95.8534 23.992C94.8828 24.5294 93.7821 24.798 92.5514 24.798ZM92.6554 23.628C93.7474 23.628 94.7094 23.4027 95.5414 22.952C96.3734 22.484 97.0234 21.8427 97.4914 21.028C97.9768 20.196 98.2194 19.2514 98.2194 18.194C98.2194 17.1194 97.9768 16.1747 97.4914 15.36C97.0234 14.5454 96.3734 13.9127 95.5414 13.462C94.7094 13.0114 93.7474 12.786 92.6554 12.786C91.5981 12.786 90.6448 13.0114 89.7954 13.462C88.9634 13.9127 88.3048 14.5454 87.8194 15.36C87.3514 16.1747 87.1174 17.1194 87.1174 18.194C87.1174 19.2514 87.3514 20.196 87.8194 21.028C88.3048 21.8427 88.9634 22.484 89.7954 22.952C90.6448 23.4027 91.5981 23.628 92.6554 23.628Z" fill="#FF8A6C"/>
<path d="M80.4941 25.292V11.72H81.7941V25.292H80.4941ZM81.1441 8.41801C80.8495 8.41801 80.5981 8.31401 80.3901 8.10601C80.1821 7.89801 80.0781 7.65534 80.0781 7.37801C80.0781 7.08334 80.1821 6.83201 80.3901 6.62401C80.5981 6.41601 80.8495 6.31201 81.1441 6.31201C81.4561 6.31201 81.7075 6.41601 81.8981 6.62401C82.1061 6.81468 82.2101 7.05734 82.2101 7.35201C82.2101 7.64668 82.1061 7.89801 81.8981 8.10601C81.7075 8.31401 81.4561 8.41801 81.1441 8.41801Z" fill="#FF8A6C"/>
<path d="M69.63 11.616C70.7393 11.616 71.7013 11.8327 72.516 12.266C73.348 12.682 73.9893 13.3233 74.44 14.19C74.908 15.0393 75.142 16.0967 75.142 17.362V25.292H73.842V17.466C73.842 15.9407 73.452 14.7793 72.672 13.982C71.9093 13.1847 70.8347 12.786 69.448 12.786C68.3907 12.786 67.472 13.0027 66.692 13.436C65.912 13.8693 65.314 14.476 64.898 15.256C64.4993 16.036 64.3 16.972 64.3 18.064V25.292H63V6H64.3V15.49L64.066 15.074C64.482 13.9993 65.1667 13.1587 66.12 12.552C67.0733 11.928 68.2433 11.616 69.63 11.616Z" fill="#FF8A6C"/>
</svg>
