<svg width="142" height="87" viewBox="0 0 142 87" fill="none" xmlns="http://www.w3.org/2000/svg">
<path d="M141.802 80.64C141.802 82.2613 141.205 83.6693 140.01 84.864C138.901 85.9733 137.578 86.528 136.042 86.528H92.01C90.474 86.528 89.1087 85.9733 87.914 84.864C86.8047 83.6693 86.25 82.2613 86.25 80.64V5.888C86.25 4.18134 86.8047 2.77334 87.914 1.664C89.1087 0.554667 90.474 0 92.01 0H95.594C97.2153 0 98.5807 0.554667 99.69 1.664C100.885 2.77334 101.482 4.18134 101.482 5.888V69.76C101.482 70.8693 101.994 71.424 103.018 71.424H136.042C137.578 71.424 138.901 71.9787 140.01 73.088C141.205 74.1973 141.802 75.6053 141.802 77.312V80.64Z" fill="#00B0C7"/>
<path d="M46.336 80.64C46.336 82.2613 45.7813 83.6693 44.672 84.864C43.5627 85.9733 42.1973 86.528 40.576 86.528H36.992C35.3707 86.528 34.0053 85.9733 32.896 84.864C31.7867 83.6693 31.232 82.2613 31.232 80.64V37.248C31.232 36.736 31.0187 36.3093 30.592 35.968C30.2507 35.6267 29.8667 35.456 29.44 35.456H17.024C16.5973 35.456 16.1707 35.6267 15.744 35.968C15.4027 36.3093 15.232 36.736 15.232 37.248V80.64C15.232 82.2613 14.6773 83.6693 13.568 84.864C12.4587 85.9733 11.0933 86.528 9.472 86.528H5.888C4.26667 86.528 2.85867 85.9733 1.664 84.864C0.554667 83.6693 0 82.2613 0 80.64V5.888C0 4.18134 0.554667 2.77334 1.664 1.664C2.85867 0.554667 4.26667 0 5.888 0H9.472C11.0933 0 12.4587 0.554667 13.568 1.664C14.6773 2.77334 15.232 4.18134 15.232 5.888V18.688C15.232 19.1147 15.4027 19.4987 15.744 19.84C16.1707 20.096 16.5973 20.224 17.024 20.224H32.128C34.7733 20.224 37.1627 20.864 39.296 22.144C41.4293 23.424 43.136 25.1733 44.416 27.392C45.696 29.5253 46.336 31.9147 46.336 34.56V80.64Z" fill="#FF8A6C"/>
<path d="M77.08 41.128C77.08 43.7733 76.1413 46.0347 74.264 47.912C72.3867 49.7893 70.1253 50.728 67.48 50.728C64.8347 50.728 62.5733 49.7893 60.696 47.912C58.8187 46.0347 57.88 43.7733 57.88 41.128C57.88 38.4827 58.8187 36.2213 60.696 34.344C62.5733 32.4667 64.8347 31.528 67.48 31.528C70.1253 31.528 72.3867 32.4667 74.264 34.344C76.1413 36.2213 77.08 38.4827 77.08 41.128ZM77.08 67.496C77.08 69.1174 76.7387 70.952 76.056 73C75.4587 75.048 74.776 76.9253 74.008 78.632C73.3253 80.3387 72.8133 81.576 72.472 82.344C71.3627 84.648 69.6133 85.8 67.224 85.8H64.408C62.36 85.8 60.7387 84.904 59.544 83.112C58.3493 81.32 58.1787 79.4427 59.032 77.48C59.2027 77.224 59.3307 76.968 59.416 76.712C59.5867 76.3707 59.7147 76.0294 59.8 75.688C60.2267 74.8347 60.1413 73.8534 59.544 72.744C58.4347 71.208 57.88 69.4587 57.88 67.496C57.88 64.8507 58.8187 62.5893 60.696 60.712C62.5733 58.8347 64.8347 57.896 67.48 57.896C70.1253 57.896 72.3867 58.8347 74.264 60.712C76.1413 62.5893 77.08 64.8507 77.08 67.496Z" fill="#5A5A5A"/>
</svg>
